# xmcd
#
# Track frame offsets: 
#        150
#        10080
#        20137
#        29773
#        41105
#        51737
#        63162
#        74418
#        86057
#        97941
#        112118
#        121635
#        131631
#        140555
#        149769
#        159721
#        171610
#        181402
#        193591
#        205622
#        216322
#        229115
#        239319
#        251910
#        262613
#
# Disc length: 3630 seconds
#
# Revision: 0
# Processed by: cddbd v1.5.2PL0 Copyright (c) Steve Scherf et al.
# Submitted via: ExactAudioCopyFreeDBPlugin 1.0
#
DISCID=820e2c19
DTITLE=Wanda Jackson - The First Lady Of Rockabilly [CD1]
DYEAR=2012
DGENRE=Rock and Roll
TTITLE0=Let's Have A Party
TTITLE1=Fujiyama Mama
TTITLE2=Funnel Of Love
TTITLE3=Riot In Cell Block Number 9
TTITLE4=Tongue Tied
TTITLE5=You Can't Have My Love
TTITLE6=I Gotta Know
TTITLE7=In The Middle Of A Heartache
TTITLE8=Right Or Wrong (I'll Be With You)
TTITLE9=Day Dreamin'
TTITLE10=Savin' My Love
TTITLE11=Mean, Mean Man
TTITLE12=Hard-Headed Woman
TTITLE13=Baby Loves Him
TTITLE14=My Baby Left Me
TTITLE15=Sparklin' Brown Eyes
TTITLE16=Sticks And Stones
TTITLE17=You've Turned To A Stranger
TTITLE18=Happy, Happy Birthday Baby
TTITLE19=Lonely Weekends
TTITLE20=Fallin'
TTITLE21=Stupid Cupid
TTITLE22=Heartbreak Ahead
TTITLE23=The Heart You Could Have Had
TTITLE24=Bye, Bye Baby
EXTD=
EXTT0=
EXTT1=
EXTT2=
EXTT3=
EXTT4=
EXTT5=
EXTT6=
EXTT7=
EXTT8=
EXTT9=
EXTT10=
EXTT11=
EXTT12=
EXTT13=
EXTT14=
EXTT15=
EXTT16=
EXTT17=
EXTT18=
EXTT19=
EXTT20=
EXTT21=
EXTT22=
EXTT23=
EXTT24=
PLAYORDER=
